<?xml version="1.0" encoding="UTF-8"?>
<svg xmlns="http://www.w3.org/2000/svg" xmlns:xlink="http://www.w3.org/1999/xlink" width="30pt" height="30pt" viewBox="0 0 30 30" version="1.1">
<g id="surface10323050">
<path style=" stroke:none;fill-rule:nonzero;fill:rgb(81.568627%,90.588235%,94.117647%);fill-opacity:1;" d="M 25.726562 5.175781 C 25.707031 5.179688 25.6875 5.1875 25.667969 5.195312 C 25.511719 5.234375 25.375 5.335938 25.292969 5.476562 L 13.03125 24.488281 L 4.59375 16.875 C 4.445312 16.6875 4.199219 16.605469 3.96875 16.667969 C 3.734375 16.726562 3.566406 16.921875 3.53125 17.160156 C 3.496094 17.394531 3.601562 17.628906 3.804688 17.757812 L 12.75 25.855469 C 12.882812 25.972656 13.058594 26.023438 13.230469 25.996094 C 13.402344 25.972656 13.554688 25.871094 13.648438 25.726562 L 26.304688 6.113281 C 26.445312 5.914062 26.453125 5.65625 26.324219 5.453125 C 26.199219 5.246094 25.960938 5.140625 25.726562 5.175781 Z M 25.726562 5.175781 "/>
</g>
</svg>
